<svg width="312" height="130" viewBox="0 0 312 130" fill="none" xmlns="http://www.w3.org/2000/svg">
<path d="M46.0795 36.9249V102.184C46.0795 105.266 46.3014 107.301 46.7526 108.303C47.1963 109.305 47.8923 110.069 48.8178 110.582C49.7509 111.102 51.4872 111.362 54.0265 111.362V113.297H29.9102V111.362C32.1666 111.362 33.704 111.133 34.53 110.666C35.3561 110.199 35.9986 109.427 36.4651 108.356C36.9317 107.285 37.1612 105.22 37.1612 102.176V57.4922C37.1612 51.9393 37.0388 48.5356 36.7864 47.2583C36.534 45.9886 36.1362 45.1166 35.5779 44.6501C35.0195 44.1835 34.3158 43.954 33.4592 43.954C32.526 43.954 31.3482 44.237 29.9179 44.8107L29 42.9444L43.6626 36.9325H46.0795V36.9249Z" fill="#fff"/>
<path d="M61.5068 62.6551V102.184C61.5068 105.266 61.285 107.316 60.8337 108.333C60.3824 109.35 59.7246 110.115 58.845 110.612C57.9654 111.117 56.3592 111.362 54.0264 111.362V113.297H77.9744V111.362C75.5728 111.362 73.9589 111.133 73.1328 110.666C72.3068 110.199 71.6566 109.427 71.1671 108.356C70.6852 107.285 70.4405 105.22 70.4405 102.176V83.2148C70.4405 77.8837 70.6011 74.4264 70.9223 72.8508C71.1747 71.7035 71.5648 70.908 72.1079 70.4644C72.6433 70.0208 73.3852 69.7913 74.3107 69.7913C75.3127 69.7913 76.5365 70.059 77.9668 70.5944L78.724 68.6593L63.8702 62.6474H61.5068V62.6551ZM65.9277 47.8778C64.4057 47.8778 63.113 48.4209 62.0498 49.4917C61.0479 50.509 60.4819 51.924 60.4972 53.3466C60.5048 54.7999 61.0173 56.0543 62.0269 57.1021C63.0212 58.1424 64.4286 58.7619 65.8742 58.7696C67.4039 58.7849 68.7195 58.2494 69.8056 57.1557C70.8918 56.0696 71.4272 54.7693 71.4195 53.2472C71.4119 51.8551 70.8535 50.486 69.8745 49.4917C68.8113 48.4209 67.4957 47.8778 65.9277 47.8778Z" fill="#fff"/>
<path d="M108.6 36.9249V102.184C108.6 105.266 108.371 107.301 107.919 108.303C107.468 109.305 106.772 110.069 105.824 110.582C104.883 111.102 103.124 111.362 100.554 111.362V113.297H124.961V111.362C122.674 111.362 121.121 111.133 120.287 110.666C119.454 110.199 118.804 109.427 118.329 108.356C117.855 107.285 117.626 105.22 117.626 102.176V57.4922C117.626 51.9393 117.756 48.5356 118.008 47.2583C118.26 45.9886 118.666 45.1166 119.232 44.6501C119.79 44.1835 120.509 43.954 121.381 43.954C122.322 43.954 123.523 44.237 124.968 44.8107L125.894 42.9291L111.055 36.9172H108.6V36.9249Z" fill="#fff"/>
<path d="M93.7076 36.9249V102.184C93.7076 105.266 93.9295 107.301 94.3807 108.303C94.8244 109.305 95.5204 110.069 96.4459 110.582C97.379 111.102 99.1153 111.362 101.655 111.362V113.297H77.5383V111.362C79.7946 111.362 81.332 111.133 82.1581 110.666C82.9842 110.199 83.6267 109.427 84.0932 108.356C84.5598 107.285 84.7893 105.22 84.7893 102.176V57.4922C84.7893 51.9393 84.6669 48.5356 84.4145 47.2583C84.1621 45.9886 83.7643 45.1166 83.206 44.6501C82.6476 44.1835 81.9439 43.954 81.0873 43.954C80.1541 43.954 78.9762 44.237 77.5459 44.8107L76.6357 42.9291L91.2983 36.9172H93.7076V36.9249Z" fill="#fff"/>
<path d="M140.442 62.6551V102.184C140.442 105.266 140.663 107.316 141.115 108.333C141.558 109.35 142.224 110.115 143.103 110.612C143.983 111.117 145.581 111.362 147.907 111.362V113.297H124.004V111.362C126.406 111.362 128.012 111.133 128.838 110.666C129.664 110.199 130.315 109.427 130.796 108.356C131.278 107.285 131.523 105.22 131.523 102.176V83.2148C131.523 77.8837 131.362 74.4264 131.041 72.8508C130.789 71.7035 130.399 70.908 129.863 70.4644C129.328 70.0208 128.594 69.7913 127.661 69.7913C126.659 69.7913 125.442 70.059 124.004 70.5944L123.255 68.6593L138.078 62.6474H140.442V62.6551ZM136.021 47.8778C137.543 47.8778 138.828 48.4209 139.891 49.4917C140.893 50.509 141.451 51.924 141.443 53.3466C141.436 54.7999 140.923 56.0543 139.914 57.1098C138.919 58.15 137.512 58.7619 136.074 58.7772C134.544 58.7925 133.236 58.2571 132.15 57.1633C131.064 56.0772 130.529 54.7769 130.536 53.2548C130.544 51.8628 131.102 50.4937 132.074 49.507C133.152 48.4209 134.46 47.8778 136.021 47.8778Z" fill="#fff"/>
<path d="M193.875 42.8985C190.479 38.9212 186.242 36.9249 181.156 36.9249C178.242 36.9249 175.473 37.8198 172.826 39.6019C170.195 41.3994 167.564 44.52 164.948 48.9792V37.1467H162.852L147.249 43.4492L147.914 45.2237C149.284 44.7112 150.408 44.4435 151.288 44.4435C152.397 44.4435 153.269 44.673 153.919 45.109C154.561 45.5526 155.028 46.218 155.326 47.0976C155.624 47.9925 155.77 50.073 155.77 53.3543V101.235C155.77 104.929 155.578 107.216 155.188 108.119C154.798 109.022 154.263 109.672 153.552 110.085C152.121 110.895 150.569 111.232 148.412 111.324L147.065 111.347H146.974V113.289H154.898C163.824 112.18 164.313 108.448 164.665 107.125C164.826 106.551 164.902 104.861 164.963 103.101C164.94 102.62 164.94 102.107 164.94 101.572V86.1442C166.784 87.804 168.451 88.9131 169.92 89.4714C171.908 90.2363 174.279 90.6264 177.002 90.6264C183.274 90.6264 188.476 88.2782 192.606 83.6049C197.616 77.8989 200.124 70.6709 200.124 61.9285C200.124 54.1115 198.044 47.7631 193.875 42.8985ZM185.798 82.993C183.511 85.8612 180.528 87.3068 176.842 87.3068C173.775 87.3068 171.251 86.4961 169.231 84.8669C167.22 83.253 165.958 81.3638 165.445 79.2298C165.116 77.9372 164.94 75.2525 164.94 71.1528V52.2452C168.008 48.9257 170.203 46.937 171.526 46.2716C173.255 45.3767 175.006 44.9483 176.773 44.9483C180.024 44.9483 182.823 46.3787 185.179 49.2622C188.567 53.4231 190.273 59.3891 190.273 67.1219C190.288 73.9446 188.789 79.2298 185.798 82.993Z" fill="#fff"/>
<path d="M269.728 17V34.745H284V38.8753H269.728V73.9063C269.728 77.4094 270.232 79.7652 271.234 80.9814C272.236 82.1975 273.521 82.8094 275.097 82.8094C276.397 82.8094 277.652 82.404 278.868 81.6009C280.084 80.7978 281.032 79.6046 281.698 78.029H284C282.623 81.8839 280.673 84.7828 278.164 86.7256C275.648 88.676 273.055 89.6474 270.378 89.6474C268.573 89.6474 266.798 89.1502 265.07 88.1406C263.341 87.1386 262.064 85.7006 261.238 83.8343C260.412 81.9681 259.999 79.0845 259.999 75.1913V38.8753L251.447 38.8447V36.9325C253.612 36.0682 255.822 34.5997 258.079 32.5422C260.335 30.477 262.354 28.0294 264.121 25.1994C265.024 23.7079 266.286 20.9773 267.892 17H269.728Z" fill="#fff"/>
<path d="M248.273 36.9325V67.925C248.273 73.8451 248.411 77.463 248.694 78.7862C248.977 80.1094 249.42 81.0272 250.032 81.5474C250.644 82.0675 251.363 82.3275 252.181 82.3275C253.336 82.3275 254.637 82.0139 256.09 81.3791L256.87 83.3372L241.565 89.6473H239.049V78.8168C234.658 83.5819 231.308 86.5802 228.998 87.804C226.688 89.0354 224.248 89.6473 221.686 89.6473C218.818 89.6473 216.332 88.8213 214.229 87.1615C212.125 85.5094 210.664 83.3754 209.846 80.7672C209.027 78.159 208.614 74.4723 208.614 69.7072V46.8758C208.614 44.4588 208.354 42.7837 207.834 41.8506C207.314 40.9175 206.542 40.2061 205.517 39.7013C204.492 39.1965 202.641 38.9671 199.956 39.0053V36.9401H217.885V71.1757C217.885 75.9409 218.711 79.0692 220.37 80.5607C222.023 82.0522 224.026 82.7941 226.375 82.7941C227.973 82.7941 229.794 82.2893 231.821 81.2873C233.847 80.2853 236.257 78.3655 239.049 75.5355V46.5393C239.049 43.6328 238.521 41.6747 237.458 40.6498C236.394 39.6248 234.192 39.0741 230.842 39.0053V36.9401H248.273V36.9325Z" fill="#fff"/>
<path d="M182.25 99.323C180.888 98.0533 178.823 97.3802 175.932 97.3802C174.693 97.3802 173.545 97.4644 172.521 97.5868C172.222 97.625 171.932 97.6556 171.656 97.7015V113.045C172.674 113.16 173.874 113.228 175.312 113.228H175.442C178.418 113.205 180.773 112.418 182.211 110.987C183.672 109.549 184.453 107.469 184.453 104.922C184.453 102.398 183.642 100.593 182.25 99.323ZM175.702 111.607H175.435C174.754 111.592 174.119 111.569 173.668 111.492V99.1853C174.096 99.0936 174.685 99.0094 175.435 98.9865C175.618 98.9712 175.817 98.9712 176.024 98.9712C180.284 98.9712 182.364 101.312 182.341 104.991C182.341 109.205 180.009 111.607 175.702 111.607Z" fill="#fff"/>
<path d="M195.467 97.4949V113.091H193.455V97.4949H195.467Z" fill="#fff"/>
<path d="M217.242 112.402C216.34 112.724 214.558 113.259 212.454 113.259C210.091 113.259 208.148 112.655 206.618 111.201C205.272 109.909 204.438 107.821 204.438 105.396C204.461 100.746 207.659 97.342 212.89 97.342C214.695 97.342 216.11 97.7321 216.776 98.061L216.286 99.7054C215.453 99.3383 214.412 99.0323 212.837 99.0323C209.043 99.0323 206.565 101.396 206.565 105.304C206.565 109.259 208.951 111.599 212.584 111.599C213.9 111.599 214.802 111.416 215.269 111.178V106.528H212.095V104.907H217.235V112.402H217.242Z" fill="#fff"/>
<path d="M228.716 97.4949V113.091H226.704V97.4949H228.716Z" fill="#fff"/>
<path d="M241.581 99.2082H236.839V97.4949H248.388V99.2082H243.623V113.098H241.589V99.2082H241.581Z" fill="#fff"/>
<path d="M257.299 108.188L255.677 113.098H253.597L258.897 97.5026H261.33L266.653 113.098H264.504L262.836 108.188H257.299ZM262.416 106.612L260.886 102.122C260.534 101.105 260.305 100.18 260.075 99.2771H260.029C259.8 100.203 259.54 101.151 259.241 102.099L257.712 106.612H262.416Z" fill="#fff"/>
<path d="M275.319 97.4949H277.331V111.408H283.993V113.098H275.312V97.4949H275.319Z" fill="#fff"/>
</svg>
